<svg xmlns="http://www.w3.org/2000/svg" id="uuid-9bfd4bd2-3a03-4e8b-84e0-b81021f42fb8" data-name="Capa 1" width="250" height="250" viewBox="0 0 250 250">
  <g>
    <path d="M125.08,91.67c-1.4,0-2.79-.59-3.78-1.73-1.81-2.09-1.58-5.25.51-7.05,17.03-14.74,40.47-28.41,96.17-28.67h.02c2.75,0,4.99,2.22,5,4.98.01,2.76-2.22,5.01-4.98,5.02-52.45.24-74.09,12.75-89.67,26.23-.95.82-2.11,1.22-3.27,1.22Z" style="fill: #0b439e;"/>
    <circle cx="217.99" cy="59.22" r="21.43" transform="translate(133.97 268.9) rotate(-83.36)" style="fill: #0b439e;"/>
  </g>
  <g>
    <path d="M40.91,129.47c-2.58,0-5.22-.05-7.94-.14-2.76-.1-4.92-2.41-4.82-5.17s2.44-4.91,5.17-4.82c36.26,1.26,52.66-6.79,62.9-13.95,2.26-1.58,5.38-1.03,6.96,1.24,1.58,2.26,1.03,5.38-1.24,6.96-15.59,10.89-34.63,15.88-61.04,15.88Z" style="fill: #0b439e;"/>
    <path d="M32.4,145.74c-11.83-.41-21.09-10.33-20.68-22.16.41-11.83,10.33-21.09,22.16-20.68,11.83.41,21.09,10.33,20.68,22.16-.41,11.83-10.33,21.09-22.16,20.68Z" style="fill: #0b439e;"/>
  </g>
  <g>
    <path d="M41.75,195.79c-2.42,0-4.91-.04-7.5-.13l.35-9.99c47.91,1.66,62.12-12.39,78.58-28.67,18.04-17.84,38.49-38.06,105.11-38.37l.05,10c-62.54.29-80.63,18.18-98.13,35.48-15.76,15.59-32.04,31.69-78.46,31.69Z" style="fill: #0b439e;"/>
    <path d="M33.69,212.08c-11.83-.41-21.09-10.33-20.68-22.16.41-11.83,10.33-21.09,22.16-20.68,11.83.41,21.09,10.33,20.68,22.16-.41,11.83-10.33,21.09-22.16,20.68Z" style="fill: #0b439e;"/>
    <path d="M218.42,145.05c11.83-.05,21.39-9.7,21.33-21.53-.05-11.83-9.7-21.39-21.53-21.33-11.83.05-21.39,9.7-21.33,21.53.05,11.83,9.7,21.39,21.53,21.33Z" style="fill: #0b439e;"/>
  </g>
  <g>
    <path d="M209.42,195.1c-32.07,0-54.52-9.79-70.21-30.48-1.67-2.2-1.24-5.34.96-7.01,2.2-1.67,5.33-1.24,7,.96,15.08,19.88,36.78,28,70.31,26.32,2.75-.15,5.1,1.99,5.24,4.74.14,2.76-1.99,5.11-4.74,5.24-2.93.15-5.79.22-8.57.22Z" style="fill: #0b439e;"/>
    <path d="M218.81,211.29c11.82-.59,20.92-10.66,20.33-22.48-.59-11.82-10.66-20.92-22.48-20.33-11.82.59-20.92,10.66-20.33,22.48.59,11.82,10.66,20.92,22.48,20.33Z" style="fill: #0b439e;"/>
  </g>
  <g>
    <path d="M126.18,135.26c-1.93,0-3.77-1.13-4.59-3.02-.84-1.94-1.67-3.89-2.5-5.84-14.11-33.07-27.45-64.33-85.8-62.63-2.76.08-5.06-2.09-5.14-4.85-.08-2.76,2.09-5.06,4.85-5.14,29.11-.84,50.89,5.99,66.62,20.89,13.87,13.14,21.39,30.77,28.66,47.81.83,1.93,1.65,3.87,2.48,5.8,1.1,2.53-.07,5.48-2.6,6.57-.65.28-1.32.41-1.98.41Z" style="fill: #0b439e;"/>
    <path d="M33.76,80.19c-11.83.34-21.7-8.97-22.04-20.8-.34-11.83,8.97-21.7,20.8-22.04,11.83-.34,21.7,8.97,22.04,20.8.34,11.83-8.97,21.7-20.8,22.04Z" style="fill: #0b439e;"/>
  </g>
</svg>